<svg width="687" height="135" viewBox="0 0 687 135" fill="none" xmlns="http://www.w3.org/2000/svg">
<path fill-rule="evenodd" clip-rule="evenodd" d="M60.5895 98.8183L60.5895 98.8184L0.000267029 98.8183L23.2217 36.392L83.8109 36.392L63.5698 90.8064L124.381 90.8064L121.444 98.8184L60.5895 98.8183Z" fill="#F5F5F5"/>
<path fill-rule="evenodd" clip-rule="evenodd" d="M237.287 36.7344L176.433 36.7344L173.496 44.7463L234.307 44.7463L214.066 99.1608L274.655 99.1608L297.877 36.7344L237.287 36.7344Z" fill="#F5F5F5"/>
<path fill-rule="evenodd" clip-rule="evenodd" d="M144.934 71.4453L144.934 71.4453L84.3447 71.4453L107.566 9.01892L168.155 9.01893L147.914 63.4334L215.398 63.4334L212.461 71.4453L144.934 71.4453Z" fill="#F5F5F5"/>
<path fill-rule="evenodd" clip-rule="evenodd" d="M134.299 118.191L66.4687 118.191L63.5316 126.203L191.384 126.203L191.384 126.194L191.911 126.194L215.133 63.7679L154.544 63.7679L134.299 118.191Z" fill="#F5F5F5"/>
<path d="M348.45 12.3988V35.7891H340.377V12.3988H327.692V5.8931H361.156V12.3988H348.45ZM390.888 35.7891V23.3215H370.348V35.7891H362.276V5.8931H370.348V16.7723H390.888V5.8931H398.96V35.7891H390.888ZM404.083 35.7891V5.8931H434.349V12.2683H412.373V17.2074H433.217V23.5826H412.373V29.4139H434.653V35.7891H404.083ZM365.791 73.5427C365.791 74.7031 365.639 75.7112 365.334 76.5671C365.029 77.4229 364.601 78.1627 364.05 78.7864C363.514 79.3956 362.861 79.8961 362.092 80.2877C361.338 80.6649 360.496 80.9695 359.568 81.2016C358.654 81.4192 357.675 81.5715 356.631 81.6585C355.586 81.7455 354.506 81.7891 353.389 81.7891H331.696V51.8931H352.997C353.853 51.8931 354.709 51.9294 355.565 52.0019C356.435 52.0744 357.262 52.2122 358.045 52.4153C358.828 52.6039 359.554 52.8722 360.221 53.2204C360.903 53.5685 361.49 54.0254 361.983 54.5911C362.491 55.1569 362.883 55.8386 363.158 56.6364C363.448 57.4342 363.593 58.3771 363.593 59.465C363.593 61.4088 363.115 62.9536 362.157 64.0995C361.2 65.231 359.691 65.9853 357.632 66.3624C359.082 66.4639 360.322 66.6888 361.352 67.0369C362.397 67.3705 363.245 67.8347 363.898 68.4294C364.551 69.0097 365.029 69.7277 365.334 70.5835C365.639 71.4248 365.791 72.4112 365.791 73.5427ZM355.717 60.7487C355.717 60.3716 355.659 60.0162 355.543 59.6826C355.427 59.3345 355.216 59.0298 354.912 58.7687C354.607 58.5076 354.194 58.2973 353.672 58.1377C353.149 57.9782 352.482 57.8984 351.67 57.8984H339.768V63.5121H351.67C352.482 63.5121 353.149 63.4395 353.672 63.2945C354.194 63.1494 354.607 62.9536 354.912 62.707C355.216 62.4604 355.427 62.1703 355.543 61.8367C355.659 61.4885 355.717 61.1259 355.717 60.7487ZM357.588 72.607C357.588 71.9253 357.472 71.3813 357.24 70.9752C357.008 70.5545 356.645 70.2354 356.152 70.0178C355.659 69.7857 355.021 69.6334 354.237 69.5609C353.454 69.4883 352.518 69.4521 351.43 69.4521H339.768V75.7838H351.43C352.518 75.7838 353.454 75.7475 354.237 75.675C355.021 75.6024 355.659 75.4501 356.152 75.218C356.645 74.986 357.008 74.6668 357.24 74.2607C357.472 73.84 357.588 73.2888 357.588 72.607ZM368.934 81.7891V51.8931H377.006V75.2398H398.83V81.7891H368.934ZM439.767 66.8628C439.767 69.4303 439.295 71.7004 438.352 73.6732C437.41 75.6315 436.061 77.2706 434.305 78.5906C432.55 79.9106 430.418 80.9115 427.908 81.5932C425.413 82.2605 422.607 82.5941 419.488 82.5941C416.369 82.5941 413.548 82.2605 411.024 81.5932C408.514 80.9115 406.375 79.9106 404.605 78.5906C402.836 77.2706 401.472 75.6315 400.515 73.6732C399.557 71.7004 399.079 69.4303 399.079 66.8628C399.079 64.2954 399.557 62.0325 400.515 60.0742C401.472 58.1015 402.836 56.4551 404.605 55.1351C406.375 53.8151 408.514 52.8215 411.024 52.1542C413.548 51.4724 416.369 51.1316 419.488 51.1316C422.607 51.1316 425.413 51.4724 427.908 52.1542C430.418 52.8215 432.55 53.8151 434.305 55.1351C436.061 56.4551 437.41 58.1015 438.352 60.0742C439.295 62.0325 439.767 64.2954 439.767 66.8628ZM431.607 66.8628C431.607 65.7459 431.426 64.6362 431.063 63.5338C430.715 62.4169 430.084 61.416 429.17 60.5312C428.271 59.6463 427.038 58.9283 425.471 58.3771C423.905 57.8259 421.91 57.5503 419.488 57.5503C417.863 57.5503 416.434 57.6808 415.202 57.9419C413.969 58.1885 412.902 58.5366 412.003 58.9863C411.104 59.436 410.349 59.9654 409.74 60.5747C409.131 61.1694 408.645 61.8149 408.282 62.5112C407.92 63.1929 407.659 63.911 407.499 64.6652C407.354 65.405 407.281 66.1376 407.281 66.8628C407.281 67.6026 407.354 68.3497 407.499 69.104C407.659 69.8582 407.92 70.5835 408.282 71.2798C408.645 71.9615 409.131 72.5998 409.74 73.1945C410.349 73.7892 411.104 74.3114 412.003 74.7611C412.902 75.1963 413.969 75.5444 415.202 75.8055C416.434 76.0521 417.863 76.1754 419.488 76.1754C421.91 76.1754 423.905 75.8998 425.471 75.3486C427.038 74.7974 428.271 74.0794 429.17 73.1945C430.084 72.3097 430.715 71.316 431.063 70.2136C431.426 69.0967 431.607 67.9798 431.607 66.8628ZM475.83 79.7438C474.785 80.1789 473.734 80.5706 472.675 80.9187C471.616 81.2669 470.521 81.5642 469.389 81.8108C468.258 82.0719 467.061 82.2677 465.799 82.3983C464.552 82.5288 463.21 82.5941 461.774 82.5941C458.728 82.5941 455.921 82.2677 453.353 81.615C450.8 80.9622 448.596 79.9831 446.739 78.6776C444.897 77.3576 443.461 75.7185 442.431 73.7602C441.401 71.7875 440.886 69.4883 440.886 66.8628C440.886 64.2373 441.401 61.9455 442.431 59.9872C443.461 58.0144 444.897 56.3753 446.739 55.0698C448.596 53.7498 450.8 52.7634 453.353 52.1107C455.921 51.4579 458.728 51.1316 461.774 51.1316C463.21 51.1316 464.552 51.1968 465.799 51.3274C467.061 51.4579 468.258 51.6538 469.389 51.9149C470.521 52.1615 471.616 52.4588 472.675 52.807C473.734 53.1551 474.785 53.5467 475.83 53.9819V61.2492C475.003 60.7995 474.133 60.3571 473.219 59.9219C472.305 59.4723 471.297 59.0734 470.194 58.7252C469.092 58.3626 467.881 58.0725 466.561 57.8549C465.241 57.6228 463.754 57.5068 462.1 57.5068C459.562 57.5068 457.451 57.7679 455.769 58.2901C454.101 58.8123 452.766 59.5085 451.765 60.3789C450.764 61.2492 450.061 62.2501 449.655 63.3815C449.248 64.4984 449.045 65.6589 449.045 66.8628C449.045 67.6606 449.132 68.4512 449.306 69.2345C449.48 70.0033 449.771 70.7358 450.177 71.4321C450.583 72.1139 451.112 72.7448 451.765 73.3251C452.418 73.9053 453.23 74.4057 454.202 74.8264C455.174 75.2471 456.305 75.5807 457.596 75.8273C458.902 76.0594 460.403 76.1754 462.1 76.1754C463.754 76.1754 465.241 76.0739 466.561 75.8708C467.881 75.6532 469.092 75.3704 470.194 75.0222C471.297 74.6741 472.305 74.2824 473.219 73.8473C474.133 73.3976 475.003 72.9407 475.83 72.4765V79.7438ZM487.241 63.2945L503.777 51.8931H514.591L494.465 66.2318L515.94 81.7891H504.169L487.241 69.3651V81.7891H479.125V51.8931H487.241V63.2945ZM549.349 79.7438C548.304 80.1789 547.253 80.5706 546.194 80.9187C545.135 81.2669 544.04 81.5642 542.908 81.8108C541.777 82.0719 540.58 82.2677 539.318 82.3983C538.071 82.5288 536.729 82.5941 535.293 82.5941C532.247 82.5941 529.44 82.2677 526.872 81.615C524.319 80.9622 522.114 79.9831 520.258 78.6776C518.416 77.3576 516.979 75.7185 515.95 73.7602C514.92 71.7875 514.405 69.4883 514.405 66.8628C514.405 64.2373 514.92 61.9455 515.95 59.9872C516.979 58.0144 518.416 56.3753 520.258 55.0698C522.114 53.7498 524.319 52.7634 526.872 52.1107C529.44 51.4579 532.247 51.1316 535.293 51.1316C536.729 51.1316 538.071 51.1968 539.318 51.3274C540.58 51.4579 541.777 51.6538 542.908 51.9149C544.04 52.1615 545.135 52.4588 546.194 52.807C547.253 53.1551 548.304 53.5467 549.349 53.9819V61.2492C548.522 60.7995 547.652 60.3571 546.738 59.9219C545.824 59.4723 544.816 59.0734 543.713 58.7252C542.611 58.3626 541.4 58.0725 540.08 57.8549C538.76 57.6228 537.273 57.5068 535.619 57.5068C533.081 57.5068 530.97 57.7679 529.287 58.2901C527.619 58.8123 526.285 59.5085 525.284 60.3789C524.283 61.2492 523.58 62.2501 523.173 63.3815C522.767 64.4984 522.564 65.6589 522.564 66.8628C522.564 67.6606 522.651 68.4512 522.825 69.2345C522.999 70.0033 523.289 70.7358 523.696 71.4321C524.102 72.1139 524.631 72.7448 525.284 73.3251C525.937 73.9053 526.749 74.4057 527.721 74.8264C528.693 75.2471 529.824 75.5807 531.115 75.8273C532.421 76.0594 533.922 76.1754 535.619 76.1754C537.273 76.1754 538.76 76.0739 540.08 75.8708C541.4 75.6532 542.611 75.3704 543.713 75.0222C544.816 74.6741 545.824 74.2824 546.738 73.8473C547.652 73.3976 548.522 72.9407 549.349 72.4765V79.7438ZM581.256 81.7891V69.3215H560.716V81.7891H552.644V51.8931H560.716V62.7723H581.256V51.8931H589.328V81.7891H581.256ZM618.472 76.1319H601.805L598.999 81.7891H589.991L605.635 51.8931H614.643L630.287 81.7891H621.279L618.472 76.1319ZM604.699 70.3007H615.622L610.182 59.2909L604.699 70.3007ZM630.949 81.7891V51.8931H639.022V81.7891H630.949ZM672.409 81.7891L652.239 61.2492V81.7891H644.166V51.8931H652.935L673.127 72.52V51.8931H681.155V81.7891H672.409ZM364.638 125.744C363.593 126.179 362.542 126.571 361.483 126.919C360.424 127.267 359.329 127.564 358.197 127.811C357.066 128.072 355.869 128.268 354.607 128.398C353.36 128.529 352.018 128.594 350.582 128.594C347.536 128.594 344.729 128.268 342.161 127.615C339.608 126.962 337.404 125.983 335.547 124.678C333.705 123.358 332.269 121.718 331.239 119.76C330.209 117.787 329.694 115.488 329.694 112.863C329.694 110.237 330.209 107.945 331.239 105.987C332.269 104.014 333.705 102.375 335.547 101.07C337.404 99.7498 339.608 98.7634 342.161 98.1107C344.729 97.4579 347.536 97.1316 350.582 97.1316C352.018 97.1316 353.36 97.1968 354.607 97.3274C355.869 97.4579 357.066 97.6538 358.197 97.9149C359.329 98.1615 360.424 98.4588 361.483 98.807C362.542 99.1551 363.593 99.5467 364.638 99.9819V107.249C363.811 106.8 362.941 106.357 362.027 105.922C361.113 105.472 360.105 105.073 359.002 104.725C357.9 104.363 356.689 104.072 355.369 103.855C354.049 103.623 352.562 103.507 350.908 103.507C348.37 103.507 346.259 103.768 344.577 104.29C342.908 104.812 341.574 105.509 340.573 106.379C339.572 107.249 338.869 108.25 338.462 109.382C338.056 110.498 337.853 111.659 337.853 112.863C337.853 113.661 337.94 114.451 338.114 115.235C338.288 116.003 338.579 116.736 338.985 117.432C339.391 118.114 339.92 118.745 340.573 119.325C341.226 119.905 342.038 120.406 343.01 120.826C343.982 121.247 345.113 121.581 346.404 121.827C347.71 122.059 349.211 122.175 350.908 122.175C352.562 122.175 354.049 122.074 355.369 121.871C356.689 121.653 357.9 121.37 359.002 121.022C360.105 120.674 361.113 120.282 362.027 119.847C362.941 119.398 363.811 118.941 364.638 118.476V125.744ZM406.619 112.863C406.619 115.43 406.148 117.7 405.205 119.673C404.262 121.631 402.913 123.271 401.158 124.591C399.403 125.911 397.27 126.911 394.761 127.593C392.266 128.26 389.459 128.594 386.34 128.594C383.222 128.594 380.4 128.26 377.876 127.593C375.367 126.911 373.227 125.911 371.458 124.591C369.688 123.271 368.324 121.631 367.367 119.673C366.41 117.7 365.931 115.43 365.931 112.863C365.931 110.295 366.41 108.032 367.367 106.074C368.324 104.101 369.688 102.455 371.458 101.135C373.227 99.8151 375.367 98.8215 377.876 98.1542C380.4 97.4724 383.222 97.1316 386.34 97.1316C389.459 97.1316 392.266 97.4724 394.761 98.1542C397.27 98.8215 399.403 99.8151 401.158 101.135C402.913 102.455 404.262 104.101 405.205 106.074C406.148 108.032 406.619 110.295 406.619 112.863ZM398.46 112.863C398.46 111.746 398.278 110.636 397.916 109.534C397.568 108.417 396.937 107.416 396.023 106.531C395.124 105.646 393.891 104.928 392.324 104.377C390.757 103.826 388.763 103.55 386.34 103.55C384.716 103.55 383.287 103.681 382.054 103.942C380.821 104.189 379.755 104.537 378.856 104.986C377.956 105.436 377.202 105.965 376.593 106.575C375.983 107.169 375.497 107.815 375.135 108.511C374.772 109.193 374.511 109.911 374.352 110.665C374.206 111.405 374.134 112.138 374.134 112.863C374.134 113.603 374.206 114.35 374.352 115.104C374.511 115.858 374.772 116.584 375.135 117.28C375.497 117.962 375.983 118.6 376.593 119.195C377.202 119.789 377.956 120.311 378.856 120.761C379.755 121.196 380.821 121.544 382.054 121.806C383.287 122.052 384.716 122.175 386.34 122.175C388.763 122.175 390.757 121.9 392.324 121.349C393.891 120.797 395.124 120.079 396.023 119.195C396.937 118.31 397.568 117.316 397.916 116.214C398.278 115.097 398.46 113.98 398.46 112.863Z" fill="#F5F5F5"/>
</svg>
